<svg width="101" height="100" viewBox="0 0 101 100" fill="none" xmlns="http://www.w3.org/2000/svg">
<path d="M78.375 58.3332C78.5169 58.3367 78.6578 58.3086 78.7875 58.2509C78.9172 58.1933 79.0325 58.1075 79.125 57.9999C79.2229 57.9019 79.2994 57.7846 79.3496 57.6555C79.3998 57.5264 79.4226 57.3883 79.4167 57.2499C79.1085 49.2738 76.9856 41.473 73.2095 34.4406C69.4334 27.4082 64.1035 21.3295 57.625 16.6666C47.5058 9.11694 35.3611 4.764 22.75 4.16656C21.1677 4.08446 19.5823 4.08446 18 4.16656C17.8555 4.17128 17.7137 4.20602 17.5834 4.26854C17.4531 4.33107 17.3372 4.42003 17.2432 4.52976C17.1491 4.63949 17.0789 4.76758 17.0371 4.90591C16.9952 5.04423 16.9826 5.18976 17 5.33322V57.2916C17 57.5678 17.1097 57.8328 17.3051 58.0281C17.5004 58.2235 17.7654 58.3332 18.0417 58.3332H78.375ZM21.1667 87.9582C18.4271 84.1958 16.9667 79.6539 17 74.9999V93.7499C17 95.4075 17.6585 96.9972 18.8306 98.1693C20.0027 99.3414 21.5924 99.9999 23.25 99.9999H48.25C42.1406 100.032 36.112 98.6035 30.6667 95.8332C26.9312 93.9819 23.6786 91.2856 21.1667 87.9582ZM21.1667 63.5832C21.2612 63.496 21.3265 63.3816 21.3537 63.2558C21.3809 63.13 21.3685 62.9989 21.3184 62.8804C21.2682 62.7619 21.1827 62.6618 21.0735 62.5937C20.9644 62.5255 20.8368 62.4928 20.7083 62.4999H18.0417C17.7654 62.4999 17.5004 62.6096 17.3051 62.805C17.1097 63.0003 17 63.2653 17 63.5416V74.9999C16.86 70.7987 18.3534 66.7066 21.1667 63.5832Z" fill="#1E1E1E"/>
<path d="M35.75 70.8334C35.2022 70.8754 34.6681 71.0254 34.1785 71.2747C33.6889 71.524 33.2534 71.8676 32.8971 72.2859C32.5409 72.7041 32.2708 73.1887 32.1025 73.7117C31.9343 74.2347 31.8711 74.7858 31.9167 75.3334C31.8835 76.8601 32.418 78.3448 33.4167 79.5C33.9789 80.0986 34.6662 80.5657 35.4296 80.8682C36.193 81.1707 37.0138 81.3011 37.8333 81.25C42.2917 81.25 46.1667 78.3334 46.1667 75C46.2066 73.3476 45.9106 71.7042 45.2966 70.1696C44.6826 68.635 43.7633 67.241 42.5945 66.0722C41.4257 64.9034 40.0317 63.9841 38.4971 63.3701C36.9625 62.7561 35.3191 62.4601 33.6667 62.5C32.0079 62.4356 30.3537 62.7148 28.8079 63.3202C27.2622 63.9256 25.8583 64.8441 24.6845 66.0179C23.5107 67.1917 22.5922 68.5956 21.9869 70.1413C21.3815 71.687 21.1022 73.3412 21.1667 75C21.1375 77.393 21.5994 79.7665 22.524 81.9738C23.4485 84.1812 24.8159 86.1755 26.5417 87.8334C31.5974 92.5596 38.1353 95.3868 45.0417 95.8334C45.1864 95.8402 45.3311 95.8179 45.4671 95.7678C45.603 95.7177 45.7276 95.6408 45.8333 95.5417C45.941 95.4492 46.0267 95.3339 46.0844 95.2042C46.142 95.0745 46.1701 94.9336 46.1667 94.7917V84.375C46.1707 84.2136 46.1301 84.0543 46.0492 83.9145C45.9683 83.7748 45.8503 83.6602 45.7083 83.5834C45.569 83.5029 45.4109 83.4606 45.25 83.4606C45.0891 83.4606 44.931 83.5029 44.7917 83.5834C42.6738 84.7958 40.2736 85.4281 37.8333 85.4167C36.4086 85.4623 34.9912 85.1949 33.681 84.6333C32.3707 84.0718 31.1996 83.2298 30.25 82.1667C28.6384 80.2542 27.7531 77.8344 27.75 75.3334C27.6702 74.2308 27.8174 73.1236 28.1825 72.0802C28.5476 71.0368 29.1228 70.0793 29.8726 69.267C30.6224 68.4548 31.5308 67.8049 32.5417 67.3576C33.5527 66.9104 34.6446 66.6752 35.75 66.6667C36.3025 66.6667 36.8324 66.8862 37.2231 67.2769C37.6138 67.6676 37.8333 68.1975 37.8333 68.75C37.8333 69.3026 37.6138 69.8325 37.2231 70.2232C36.8324 70.6139 36.3025 70.8334 35.75 70.8334ZM50.3333 75V94.625C50.3354 94.9226 50.4552 95.2073 50.6667 95.4167C50.7757 95.5084 50.9018 95.5777 51.0376 95.6206C51.1734 95.6634 51.3164 95.6791 51.4583 95.6667C64.4583 94.375 78.2083 85.4167 79.4167 63.5834C79.4193 63.3052 79.3149 63.0367 79.125 62.8334C79.0291 62.7299 78.9131 62.647 78.7842 62.5897C78.6553 62.5324 78.5161 62.5019 78.375 62.5H47.375C47.1772 62.5005 46.9834 62.5552 46.8144 62.658C46.6455 62.7608 46.5079 62.9079 46.4167 63.0834C46.309 63.2512 46.2517 63.4465 46.2517 63.6459C46.2517 63.8453 46.309 64.0405 46.4167 64.2084C48.9591 67.2282 50.347 71.0525 50.3333 75Z" fill="#1E1E1E"/>
<path d="M79.5 80.6667C76.4886 87.1396 71.4592 92.4613 65.1667 95.8334C59.9564 98.5928 54.1458 100.024 48.25 100H77.4167C79.0743 100 80.664 99.3416 81.8361 98.1695C83.0082 96.9973 83.6667 95.4076 83.6667 93.75V75.4584C83.6618 75.2109 83.5723 74.9726 83.4131 74.7831C83.2539 74.5935 83.0346 74.4643 82.7917 74.4167C82.5414 74.3934 82.2905 74.4546 82.079 74.5905C81.8676 74.7265 81.7077 74.9293 81.625 75.1667C81.069 77.0553 80.3582 78.8949 79.5 80.6667ZM83.6667 6.25004C83.6667 4.59244 83.0082 3.00272 81.8361 1.83062C80.664 0.65852 79.0743 4.01098e-05 77.4167 4.01098e-05H36.8333C36.5749 -0.0116195 36.3219 0.0773709 36.1277 0.248311C35.9334 0.419251 35.813 0.658831 35.7917 0.916707C35.7532 1.16407 35.8089 1.41687 35.9477 1.62517C36.0866 1.83346 36.2985 1.9821 36.5417 2.04171C38.7996 2.63285 41.0249 3.34216 43.2083 4.16671C49.256 6.38059 54.9534 9.45379 60.125 13.2917C68.7308 19.5561 75.4363 28.0786 79.5 37.9167C80.3303 39.9991 81.0398 42.1276 81.625 44.2917C81.6952 44.5324 81.8499 44.7397 82.0607 44.8756C82.2714 45.0114 82.5241 45.0667 82.7723 45.0312C83.0205 44.9958 83.2477 44.872 83.4119 44.6825C83.5762 44.4931 83.6667 44.2508 83.6667 44V6.25004Z" fill="#1E1E1E"/>
</svg>
