<svg width="100" height="100" viewBox="0 0 100 100" fill="none" xmlns="http://www.w3.org/2000/svg">
<path d="M50 16.6666C38.1667 16.6666 28.4375 24.3458 25.75 34.4083L17.6959 32.2583C21.4042 18.3749 34.5709 8.33325 50 8.33325C68.1959 8.33325 83.3334 22.3624 83.3334 40.1333C83.3334 46.9124 81.5417 52.0166 78.625 56.0083C75.7917 59.8958 72.0875 62.4458 68.875 64.4541L66.7084 65.7874C64.3167 67.2458 62.4459 68.3833 60.925 69.8124C59.2709 71.3666 58.3334 73.0291 58.3334 75.6583C58.3334 84.7083 50.6584 91.6666 41.6667 91.6666C32.675 91.6666 25 84.7083 25 75.6583H33.3334C33.3334 79.6874 36.85 83.3333 41.6667 83.3333C46.4834 83.3333 50 79.6874 50 75.6583C50 70.3499 52.1875 66.5916 55.2167 63.7416C57.4334 61.6583 60.2917 59.9249 62.7792 58.4166L64.4584 57.3874C67.4917 55.4916 70.0417 53.6374 71.8959 51.0958C73.6667 48.6666 75 45.3249 75 40.1333C75 27.3833 64.0209 16.6666 50 16.6666Z" fill="black"/>
<path d="M62.1084 27.4417C51.95 22.925 43.275 23.1917 37.15 28.3834C31.3542 33.2917 29.1667 41.575 29.1667 50V54.1667C29.1667 57.4819 30.4836 60.6613 32.8279 63.0055C35.1721 65.3497 38.3515 66.6667 41.6667 66.6667C53.6792 66.6667 59.6792 56.4959 58.5917 48C58.0334 43.6375 55.5917 39.3834 50.9709 37.1667C48.2375 35.8584 45.0375 35.4 41.4625 35.8125C41.8042 35.4153 42.1625 35.0584 42.5375 34.7417C45.2667 32.4292 50.1334 31.2417 58.725 35.0584C59.2251 35.2805 59.7641 35.402 60.3112 35.4159C60.8582 35.4297 61.4027 35.3357 61.9134 35.1391C62.4241 34.9426 62.8911 34.6474 63.2878 34.2703C63.6844 33.8933 64.0029 33.4418 64.225 32.9417C64.4472 32.4416 64.5686 31.9026 64.5825 31.3556C64.5964 30.8085 64.5023 30.2641 64.3058 29.7533C64.1092 29.2426 63.814 28.7756 63.437 28.379C63.0599 27.9823 62.6085 27.6639 62.1084 27.4417Z" fill="black"/>
</svg>
