<svg width="101" height="100" viewBox="0 0 101 100" fill="none" xmlns="http://www.w3.org/2000/svg">
<path fill-rule="evenodd" clip-rule="evenodd" d="M79.5 58.3334C80.2795 58.3334 81.0434 58.5521 81.7048 58.9645C82.3662 59.377 82.8987 59.9668 83.2417 60.6667L83.4417 61.1542L83.9833 62.7292C84.555 64.405 85.4762 65.9402 86.6858 67.2332C87.8954 68.5261 89.366 69.5474 91 70.2292L91.7708 70.5209L93.3458 71.0584C94.1258 71.3245 94.8093 71.8159 95.31 72.4705C95.8107 73.1251 96.106 73.9134 96.1586 74.7358C96.2112 75.5582 96.0188 76.3778 95.6057 77.0908C95.1925 77.8039 94.5772 78.3784 93.8375 78.7417L93.3458 78.9417L91.7708 79.4834C90.0951 80.0551 88.5599 80.9762 87.2669 82.1859C85.9739 83.3955 84.9527 84.8661 84.2708 86.5001L83.9792 87.2709L83.4417 88.8459C83.1756 89.6259 82.6842 90.3094 82.0296 90.8101C81.375 91.3108 80.5867 91.6061 79.7643 91.6587C78.9418 91.7113 78.1223 91.5189 77.4092 91.1057C76.6962 90.6926 76.1217 90.0773 75.7583 89.3376L75.5583 88.8459L75.0167 87.2709C74.445 85.5951 73.5238 84.06 72.3142 82.767C71.1045 81.474 69.634 80.4528 68 79.7709L67.2292 79.4792L65.6542 78.9417C64.8742 78.6757 64.1907 78.1842 63.69 77.5297C63.1893 76.8751 62.894 76.0868 62.8414 75.2643C62.7887 74.4419 62.9812 73.6224 63.3943 72.9093C63.8075 72.1963 64.4228 71.6217 65.1625 71.2584L65.6542 71.0584L67.2292 70.5167C68.9049 69.9451 70.4401 69.0239 71.7331 67.8143C73.026 66.6046 74.0473 65.1341 74.7291 63.5001L75.0208 62.7292L75.5583 61.1542C75.8391 60.3317 76.37 59.6175 77.0768 59.1117C77.7836 58.6059 78.6308 58.3338 79.5 58.3334ZM83.6667 16.6667C85.7691 16.6661 87.794 17.4601 89.3356 18.8897C90.8772 20.3192 91.8215 22.2786 91.9792 24.3751L92 25.0001V45.8334C91.9988 46.8954 91.5922 47.9169 90.8631 48.6891C90.1341 49.4613 89.1377 49.9261 88.0775 49.9883C87.0173 50.0505 85.9734 49.7056 85.159 49.024C84.3446 48.3424 83.8213 47.3755 83.6958 46.3209L83.6667 45.8334V35.9792L54.3333 60.4251C53.2946 61.2901 52.0034 61.795 50.6534 61.8641C49.3035 61.9332 47.9675 61.5628 46.8458 60.8084L46.3333 60.4251L17 35.9792V75.0001H50.3333C51.3953 75.0013 52.4168 75.4079 53.189 76.1369C53.9613 76.866 54.426 77.8624 54.4882 78.9226C54.5504 79.9827 54.2055 81.0267 53.5239 81.841C52.8423 82.6554 51.8754 83.1788 50.8208 83.3042L50.3333 83.3334H17C14.8976 83.3341 12.8726 82.5401 11.331 81.1105C9.78945 79.681 8.84517 77.7216 8.68749 75.6251L8.66666 75.0001V25.0001C8.66599 22.8977 9.46002 20.8727 10.8896 19.3311C12.3191 17.7895 14.2785 16.8453 16.375 16.6876L17 16.6667H83.6667ZM79.5 71.6501C78.5143 72.8905 77.3904 74.0144 76.15 75.0001C77.3944 75.989 78.5111 77.1056 79.5 78.3501C80.4861 77.1056 81.6028 75.989 82.85 75.0001C81.6096 74.0144 80.4856 72.8905 79.5 71.6501ZM83.6667 25.0001H17V25.1334L50.3333 52.9084L83.6667 25.1334V25.0001Z" fill="#1E1E1E"/>
</svg>
