<svg width="100" height="100" viewBox="0 0 100 100" fill="none" xmlns="http://www.w3.org/2000/svg">
<path d="M75.5417 50L80.7917 44.75C82.625 42.9167 84.9583 41.9167 87.5 41.6667V37.5L62.5 12.5H20.8333C16.2083 12.5 12.5 16.2083 12.5 20.8333V79.1667C12.5 81.3768 13.378 83.4964 14.9408 85.0592C16.5036 86.622 18.6232 87.5 20.8333 87.5H45.8333V79.7083L46.375 79.1667H20.8333V20.8333H50V50H75.5417ZM58.3333 18.75L81.25 41.6667H58.3333V18.75ZM79.7083 57.625L88.2083 66.125L62.6667 91.6667H54.1667V83.1667L79.7083 57.625ZM95.2083 59.125L91.125 63.2083L82.625 54.7083L86.7083 50.625C87.5 49.7917 88.875 49.7917 89.7083 50.625L95.2083 56.125C96.0417 56.9583 96.0417 58.3333 95.2083 59.125Z" fill="black"/>
</svg>
