<svg width="101" height="100" viewBox="0 0 101 100" fill="none" xmlns="http://www.w3.org/2000/svg">
<path d="M73.4167 83.7499L67.375 77.7082C66.9583 77.2916 66.4722 77.0833 65.9167 77.0833C65.3611 77.0833 64.875 77.2916 64.4583 77.7082C64.0417 78.1249 63.8333 78.611 63.8333 79.1666C63.8333 79.7221 64.0417 80.2083 64.4583 80.6249L72.5833 88.7499C73 89.1666 73.4514 89.4624 73.9375 89.6374C74.4236 89.8124 74.9444 89.8985 75.5 89.8958C76.0556 89.893 76.5764 89.8069 77.0625 89.6374C77.5486 89.468 78 89.1721 78.4167 88.7499L86.5417 80.6249C86.9583 80.2083 87.1667 79.7221 87.1667 79.1666C87.1667 78.611 86.9583 78.1249 86.5417 77.7082C86.125 77.2916 85.6389 77.0833 85.0833 77.0833C84.5278 77.0833 84.0417 77.2916 83.625 77.7082L77.5833 83.7499V68.7499C77.5833 68.1944 77.375 67.7082 76.9583 67.2916C76.5417 66.8749 76.0556 66.6666 75.5 66.6666C74.9444 66.6666 74.4583 66.8749 74.0417 67.2916C73.625 67.7082 73.4167 68.1944 73.4167 68.7499V83.7499ZM50.5 53.5416C51.2639 53.5416 51.9931 53.4374 52.6875 53.2291C53.3819 53.0207 54.0417 52.743 54.6667 52.3957L75.8125 40.2083C76.7847 39.6527 77.4097 38.8027 77.6875 37.6583C77.9653 36.5138 77.8264 35.4541 77.2708 34.4791C76.7153 33.5041 75.8819 32.8791 74.7708 32.6041C73.6597 32.3291 72.6181 32.468 71.6458 33.0208L50.5 45.2083L29.3542 33.0208C28.3819 32.4652 27.3403 32.3263 26.2292 32.6041C25.1181 32.8819 24.2847 33.5069 23.7292 34.4791C23.1736 35.4513 23.0528 36.511 23.3667 37.6583C23.6806 38.8055 24.3222 39.6555 25.2917 40.2083L46.3333 52.3957C46.9583 52.743 47.6181 53.0207 48.3125 53.2291C49.0069 53.4374 49.7361 53.5416 50.5 53.5416ZM13 66.5624V33.4374C13 31.9096 13.3653 30.5208 14.0958 29.2708C14.8264 28.0208 15.85 27.0138 17.1667 26.2499L46.3333 9.47909C47.0278 9.13186 47.7056 8.85409 48.3667 8.64575C49.0278 8.43742 49.7389 8.33325 50.5 8.33325C51.2611 8.33325 51.9903 8.43742 52.6875 8.64575C53.3847 8.85409 54.0444 9.13186 54.6667 9.47909L83.8333 26.2499C85.1528 27.0138 86.1778 28.0208 86.9083 29.2708C87.6389 30.5208 88.0028 31.9096 88 33.4374V47.6041C88 48.8541 87.4792 49.8263 86.4375 50.5208C85.3958 51.2152 84.2847 51.3888 83.1042 51.0416C81.9236 50.6944 80.6903 50.4346 79.4042 50.2624C78.1181 50.0902 76.8167 50.0027 75.5 49.9999C67.4444 49.9999 60.5694 52.8471 54.875 58.5416C49.1806 64.236 46.3333 71.111 46.3333 79.1666V81.3041C46.3333 81.9624 46.4028 82.5694 46.5417 83.1249C46.8194 84.861 46.3153 86.2152 45.0292 87.1874C43.7431 88.1596 42.4083 88.2638 41.025 87.4999L17.1667 73.7499C15.8472 72.986 14.8236 71.9791 14.0958 70.7291C13.3681 69.4791 13.0028 68.0902 13 66.5624ZM75.5 99.9999C69.7361 99.9999 64.8236 97.968 60.7625 93.9041C56.7014 89.8402 54.6694 84.9277 54.6667 79.1666C54.6639 73.4055 56.6958 68.493 60.7625 64.4291C64.8292 60.3652 69.7417 58.3333 75.5 58.3333C81.2583 58.3333 86.1722 60.3652 90.2417 64.4291C94.3111 68.493 96.3417 73.4055 96.3333 79.1666C96.325 84.9277 94.2931 89.8416 90.2375 93.9082C86.1819 97.9749 81.2694 100.005 75.5 99.9999Z" fill="black"/>
</svg>
