<svg width="41" height="40" viewBox="0 0 41 40" fill="none" xmlns="http://www.w3.org/2000/svg">
<path d="M18.4166 39.9047C14.8494 39.4416 11.1772 37.9098 8.50238 35.7659C2.48038 30.9551 -0.253148 23.3546 1.30922 15.8067C1.97917 12.5477 3.72403 9.11857 5.95759 6.64807C7.60404 4.79512 9.58801 3.27325 11.8034 2.16388C14.7456 0.670815 17.5579 0 20.8776 0C23.2599 0 25.1748 0.31288 27.3683 1.06254C30.2502 2.05213 32.8683 3.68754 35.0231 5.84407C37.178 8.0006 38.8126 10.6213 39.8023 13.5064C40.9747 16.9481 41.1885 20.6113 40.4398 24.2419C39.8411 27.1104 38.2974 30.3368 36.3976 32.6697C35.6164 33.6346 33.8191 35.3554 32.8754 36.0525C30.0526 38.1525 26.7322 39.4801 23.2412 39.9047C22.2125 40.0349 19.4115 40.0286 18.4166 39.9047ZM23.8661 38.2302C26.2788 37.8256 28.5883 36.9489 30.6625 35.6504C32.7368 34.3519 34.5352 32.6569 35.9551 30.6622C39.3336 25.9102 40.2385 19.535 38.3312 13.9757C37.8825 12.6716 36.7688 10.4952 35.9551 9.3476C35.0502 8.06354 32.8104 5.81456 31.5217 4.90846C30.2718 4.02239 28.1433 2.94608 26.6909 2.4705C24.0693 1.59809 21.2853 1.32679 18.5449 1.67664C15.8045 2.02649 13.1776 2.98855 10.8584 4.49171C8.67654 5.92722 6.8113 7.79488 5.37764 9.97962C3.87673 12.3005 2.91606 14.9295 2.56665 17.6723C2.21725 20.415 2.48806 23.2013 3.35906 25.8251C3.84027 27.2781 4.91518 29.417 5.79386 30.6685C6.70503 31.9526 8.94485 34.2015 10.2272 35.1076C11.3796 35.9161 13.547 37.03 14.8494 37.4868C17.7482 38.4729 20.8452 38.7283 23.8661 38.2302ZM16.9392 31.5158C16.0045 31.3756 15.1078 31.0474 14.3032 30.5509C13.5807 30.0878 8.12492 24.7363 7.85869 24.2344C7.55246 23.6612 8.08617 22.6175 8.84861 22.2983L9.20608 22.1481L8.10617 21.0268C7.50122 20.4073 6.92751 19.749 6.83627 19.5663C6.62129 19.1495 6.61504 18.2559 6.81627 17.8579C6.90127 17.6952 7.1025 17.4474 7.25874 17.3098C7.52621 17.0883 7.55121 17.0094 7.52621 16.4487C7.49372 15.9531 7.53871 15.7579 7.7537 15.3862C8.06617 14.8518 8.71112 14.4926 9.34232 14.4863C9.69354 14.4863 9.78478 14.4413 9.93477 14.1797C10.326 13.4951 11.4446 13.2473 12.2983 13.6653L12.7608 13.8869L12.9883 13.6653C13.3007 13.3787 13.9257 13.1247 14.3357 13.1247C15.1556 13.1247 16.3142 14.0696 16.3142 14.7341C16.3142 15.5289 15.5918 15.6665 14.8756 15.0082C14.4007 14.5652 14.1594 14.5189 13.9644 14.8318C13.8669 14.9819 14.1007 15.2623 15.5006 16.6765C16.9004 18.0845 17.1542 18.3848 17.1542 18.6514C17.1431 18.8557 17.0562 19.0486 16.9106 19.1921C16.7649 19.3356 16.571 19.4195 16.3667 19.4273C16.113 19.4273 15.6968 19.0619 13.7757 17.1458C11.8159 15.1897 11.4584 14.8768 11.3022 14.9757C10.8784 15.2435 11.0222 15.4387 13.3132 17.739C14.5569 18.9906 15.5793 20.0982 15.5793 20.2033C15.5793 20.4185 15.3843 20.8165 15.2218 20.9204C15.0885 20.9788 14.9435 21.0058 14.7981 20.9993C14.5306 21.0055 14.1207 20.6338 11.9409 18.4574C9.75353 16.2798 9.36231 15.9281 9.20608 16.0257C8.77611 16.2998 8.91985 16.4888 11.4134 18.9981C12.7745 20.361 13.9132 21.58 13.9457 21.7101C14.0169 21.9454 13.8607 22.3559 13.6532 22.4986C13.5155 22.5572 13.3665 22.5841 13.217 22.5774C12.9495 22.5774 12.612 22.2846 10.8084 20.4786C9.06984 18.7378 8.66612 18.3798 8.44489 18.3998C7.81994 18.4712 8.04117 18.7515 11.2697 21.9917C14.0694 24.8014 14.4269 25.1994 14.4269 25.4922C14.4302 25.5998 14.4062 25.7065 14.3573 25.8023C14.3083 25.8982 14.236 25.9801 14.1469 26.0404C13.6457 26.4384 13.4507 26.347 12.1871 25.1218C11.5421 24.5023 10.8784 23.9028 10.7022 23.7914C10.3835 23.5962 9.57605 23.5111 9.42606 23.6675C9.37356 23.7125 10.5647 24.9716 12.0696 26.4634C14.5756 28.9464 14.8619 29.2017 15.5981 29.5534C16.2762 29.8918 17.0231 30.069 17.7808 30.0712C18.5385 30.0734 19.2864 29.9004 19.9664 29.5659C22.0688 28.5622 23.2349 26.1242 22.6612 23.914C22.375 22.8127 22.0163 22.2846 20.5714 20.7915C18.9053 19.0832 18.5203 18.6139 18.1103 17.7929C17.6541 16.8742 17.4592 15.9807 17.4592 14.8656C17.4592 13.6591 17.5829 13.1122 18.1166 11.9846C18.6241 10.9095 19.6852 9.78188 20.7339 9.20117C22.7912 8.05353 25.4997 8.15115 27.4646 9.43646C27.8558 9.69052 29.2682 11.0209 31.0255 12.7868C33.6366 15.4075 33.9353 15.7466 33.9353 16.0457C33.9353 16.7566 33.3553 17.5451 32.7116 17.7078C32.4704 17.7728 32.5167 17.8379 33.6103 18.953C34.2478 19.5988 34.8402 20.2959 34.9315 20.5112C35.2377 21.2483 35.1002 21.9642 34.5402 22.5511C34.254 22.8515 34.2153 22.9554 34.2078 23.5549C34.2015 24.083 34.1428 24.3045 33.934 24.6049C33.7692 24.8492 33.5484 25.0506 33.2902 25.1923C33.0319 25.3341 32.7436 25.412 32.4492 25.4196C32.0455 25.4196 31.968 25.4584 31.7655 25.765C31.3093 26.4696 30.1244 26.7162 29.3569 26.2606L28.9732 26.0329L28.6995 26.3007C28.0945 26.8814 27.1171 26.959 26.3759 26.4834C25.7772 26.1055 25.3348 25.5773 25.3348 25.2444C25.3348 24.9516 25.7585 24.4685 26.0184 24.4685C26.2659 24.4685 26.5984 24.6637 26.9759 25.0166C27.3533 25.3746 27.6796 25.3746 27.7308 25.0104C27.7571 24.8151 27.4446 24.4434 26.1809 23.1719C24.8523 21.829 24.5986 21.5224 24.5986 21.2621C24.5956 21.1167 24.6224 20.9724 24.6773 20.8378C24.821 20.6225 25.2248 20.4724 25.471 20.5374C25.601 20.57 26.7009 21.5875 27.9058 22.7927C29.1169 24.0054 30.1781 24.9954 30.2756 24.9954C30.5431 24.9954 30.7181 24.7275 30.5943 24.4998C30.5356 24.3959 29.5132 23.3459 28.3283 22.1594C26.4734 20.3084 26.1734 19.963 26.1734 19.6889C26.1677 19.5413 26.1945 19.3943 26.2522 19.2584C26.3634 19.0957 26.7534 18.9005 26.9746 18.9005C27.0721 18.9005 28.2958 20.0406 29.6956 21.436C32.2604 23.9916 32.4492 24.1343 32.7166 23.7113C32.8141 23.5549 32.4629 23.1569 30.2881 20.973C28.042 18.7177 27.7433 18.3786 27.7433 18.0857C27.7433 17.8842 27.8345 17.6752 27.9783 17.5451C28.4532 17.0958 28.597 17.1871 30.908 19.4874C33.0954 21.6713 33.2904 21.814 33.5578 21.3972C33.6553 21.2408 33.2129 20.759 30.4981 18.0332C27.5421 15.0608 27.3283 14.8192 27.3283 14.4738C27.3283 13.9519 27.6283 13.7041 28.207 13.7442C28.3108 13.7504 28.9357 14.2786 29.5807 14.9106C30.2319 15.5426 30.9343 16.1358 31.143 16.2272C31.553 16.3962 32.028 16.4224 32.2304 16.2923C32.4254 16.1684 27.0221 10.8432 26.3197 10.4715C25.7174 10.146 25.0549 9.94734 24.3731 9.8878C23.6913 9.82826 23.0045 9.90907 22.355 10.1253C21.7056 10.3414 21.1072 10.6884 20.5966 11.1449C20.0861 11.6013 19.6743 12.1575 19.3865 12.7793C19.0478 13.5026 19.0028 13.7179 18.9565 14.6503C18.9178 15.5301 18.9503 15.8042 19.139 16.3649C19.4777 17.3623 19.7702 17.7728 21.2876 19.3247C22.9287 21.0068 23.2412 21.391 23.6574 22.2908C24.8298 24.7939 24.3348 27.6886 22.4012 29.6172C20.9301 31.0965 18.9253 31.7886 16.9392 31.5158Z" fill="#1E1E1E"/>
</svg>
