<svg width="50" height="46" viewBox="0 0 50 46" fill="none" xmlns="http://www.w3.org/2000/svg">
<path d="M7.74981 37.5545C7.21895 37.6944 9.44926 36.6123 7.85387 36.331C7.43691 36.2558 6.74152 36.6123 6.26129 36.0484C5.78457 35.4838 5.0934 35.9633 4.9352 36.4766C4.77559 36.9891 1.91035 37.0834 2.2816 37.4117C2.65215 37.7415 3.55496 39.4824 3.92692 39.1063C4.29887 38.7301 4.69051 37.648 5.05192 38.1655C5.41332 38.683 5.5202 39.7651 4.24613 40.8008C2.97207 41.8365 4.88317 41.2241 4.61668 42.4475C4.35231 43.6709 5.68051 43.5774 5.89145 43.6245C6.10449 43.6709 7.32442 42.965 7.53746 42.496C7.75051 42.0249 9.02246 38.6837 8.86356 38.401C8.70535 38.1191 8.27926 37.4117 7.74981 37.5545ZM32.7501 14.1664C32.7501 14.1664 31.796 13.4605 31.5822 14.1664C31.3706 14.8709 32.8029 15.0137 32.6454 15.5783C32.4857 16.1429 31.0514 16.2378 30.9979 15.2007C30.9466 14.1664 30.4157 15.1072 30.4157 15.8602C30.4157 16.614 28.717 15.9552 29.2479 16.8488C29.7787 17.7425 28.3464 18.7782 29.1424 18.9666C29.9383 19.1551 28.8766 22.7312 28.3464 23.1073C27.8135 23.4849 28.1861 24.1895 27.2306 24.4721C26.2743 24.7548 25.2661 26.8248 23.9941 27.1552C22.7193 27.485 22.4001 28.0946 22.2426 27.485C22.0816 26.8726 21.1261 26.9661 21.9768 26.5428C22.8255 26.1181 23.4091 25.2737 22.5063 25.4621C21.6042 25.6491 20.7555 26.495 21.0726 26.9661C21.3932 27.4372 21.2379 28.3309 20.5186 28.802C19.7993 29.2731 18.6862 29.9305 19.2157 30.4016C19.7465 30.8727 19.0561 31.907 18.4197 31.5301C17.782 31.1539 17.1464 30.1667 16.5086 30.6364C15.8709 31.1061 14.1743 31.4837 13.2707 31.3423C12.3693 31.2024 11.0404 30.7777 10.8829 31.3902C10.7233 31.9998 9.47809 33.4131 8.87832 33.5544C8.27996 33.6957 7.84051 34.2603 7.16692 34.4002C6.67613 34.5029 5.73395 34.8713 6.36957 35.3888C7.0066 35.9063 8.30668 34.7293 8.87762 35.3888C9.44996 36.0484 9.92738 34.2603 10.1383 34.6829C10.35 35.1076 11.8364 34.7349 12.8988 34.3806C13.9612 34.0234 15.0743 33.2232 16.1374 33.5059C17.1991 33.7885 18.0471 34.0648 17.4635 34.4916C16.8792 34.917 16.4545 35.9063 16.9319 36.0477C17.41 36.189 18.1005 37.2711 18.7375 37.0348C19.3746 36.8 20.1705 34.7293 21.1254 34.7771C22.0802 34.8235 21.3925 33.7885 20.7548 33.695C20.1178 33.6001 21.5507 31.9056 21.9227 32.7064C22.2932 33.5059 24.3639 34.1169 24.8407 33.8349C25.3195 33.5537 25.9031 32.4659 26.5943 32.492C27.2826 32.518 25.5318 34.4459 26.5943 33.9298C27.6546 33.4123 27.6011 31.5772 28.4519 32.1418C29.3013 32.7064 29.5129 30.4473 29.6184 31.3895C29.7253 32.3288 28.9807 33.0826 29.6184 32.8463C30.2561 32.6115 31.7425 31.0597 31.4233 30.1175C31.1041 29.1767 30.8932 27.717 31.9021 27.1995C32.9104 26.6834 31.5822 23.1059 32.5385 23.1059C33.4933 23.1059 33.4933 23.5412 33.5475 22.5238C33.6002 21.5063 33.9722 21.0366 34.7139 20.2358C35.4579 19.4349 33.4406 16.8945 33.1762 16.4713C32.9097 16.0473 33.7584 14.6361 32.7501 14.1664Z" fill="#1E1E1E"/>
<path d="M16.0177 36.3759C15.4971 36.4635 14.4169 35.9755 13.9875 36.6259C13.5557 37.2778 13.0026 36.8894 12.6962 37.2898C12.3875 37.6902 11.6502 36.5383 11.1565 37.2898C10.6652 38.0412 9.43589 38.8421 10.1121 39.2927C10.7883 39.7447 9.86523 40.0456 10.4192 40.5456C10.974 41.0471 12.0795 41.2476 12.2669 40.5456C12.4502 39.845 13.1883 38.2815 14.0494 38.6879C14.9105 39.0943 15.3391 39.3151 15.6478 38.9289C15.9566 38.5427 16.5709 37.941 17.001 37.8414C17.4304 37.7396 17.1868 36.1738 16.0177 36.3759ZM48.3679 8.33637C48.675 8.08489 48.429 7.53402 47.9361 7.1336C47.4449 6.73317 48.3679 5.68233 48.7989 5.02968C49.2282 4.37927 47.1385 6.53258 46.3996 6.2826C45.6615 6.03112 45.3519 5.73098 44.2464 5.63069C43.1401 5.53115 40.3718 3.0268 39.2655 1.62344C38.1575 0.221572 36.9884 1.52389 37.4202 2.22445C37.8495 2.92651 38.2186 4.02824 37.8495 4.77969C37.4797 5.53115 38.0361 6.08201 36.9876 6.38214C35.9432 6.68153 36.9876 7.18449 36.9876 8.2488C36.9876 9.31311 36.0043 9.03693 35.0829 8.58486C34.159 8.13579 34.0979 8.13579 33.8926 8.58486C33.6922 9.03693 34.4043 9.33781 33.8926 9.63869C33.3835 9.93808 32.4384 10.2891 32.005 11.0406C31.5757 11.792 32.2535 12.4424 33.0527 12.5929C33.8511 12.7433 32.005 13.8458 32.6217 14.5471C33.236 15.2477 33.913 14.2462 34.2218 13.6452C34.5297 13.0442 35.267 13.7447 35.6988 13.6452C36.1281 13.5457 35.8666 13.1041 35.3289 12.5929C35.1684 12.4409 34.8817 12.3309 34.3285 12.2553C33.7737 12.179 33.4209 11.9058 33.5765 11.4911C33.7297 11.0787 34.4051 10.6783 34.9142 10.8534C35.4193 11.0286 35.3835 11.3444 35.4519 11.542C35.6255 12.0375 36.3114 11.2411 37.1734 10.8901C38.0353 10.5391 39.1416 11.4911 40.0638 11.8931C40.9869 12.2935 42.3401 12.8945 42.3401 12.8945C42.8321 13.3451 42.3401 12.0936 42.7083 11.542C43.0774 10.9912 44.2464 9.18737 44.9226 9.53765C45.5988 9.88793 47.1996 10.0391 47.506 9.58705C47.8139 9.13648 48.3679 9.23602 49.5972 8.53621C50.8258 7.8349 48.0591 8.58486 48.3679 8.33637Z" fill="#1E1E1E"/>
</svg>
