<svg width="41" height="40" viewBox="0 0 41 40" fill="none" xmlns="http://www.w3.org/2000/svg">
<path d="M7.0177 35.3759C6.49712 35.4635 5.41685 34.9755 4.98751 35.6259C4.55573 36.2778 4.00256 35.8894 3.69624 36.2898C3.38748 36.6902 2.65019 35.5383 2.1565 36.2898C1.66524 37.0412 0.435889 37.8421 1.11207 38.2927C1.78826 38.7447 0.865226 39.0456 1.41921 39.5456C1.97401 40.0471 3.07953 40.2476 3.26691 39.5456C3.45021 38.845 4.18831 37.2815 5.04943 37.6879C5.91055 38.0943 6.33907 38.3151 6.64784 37.9289C6.9566 37.5427 7.57087 36.941 8.00102 36.8414C8.43036 36.7396 8.18677 35.1738 7.0177 35.3759ZM39.3679 7.33637C39.675 7.08489 39.429 6.53402 38.9361 6.1336C38.4449 5.73317 39.3679 4.68233 39.7989 4.02968C40.2282 3.37927 38.1385 5.53258 37.3996 5.2826C36.6615 5.03112 36.3519 4.73098 35.2464 4.63069C34.1401 4.53115 31.3718 2.0268 30.2655 0.623437C29.1575 -0.778428 27.9884 0.523892 28.4202 1.22445C28.8495 1.92651 29.2186 3.02824 28.8495 3.77969C28.4797 4.53115 29.0361 5.08201 27.9876 5.38214C26.9432 5.68153 27.9876 6.18449 27.9876 7.2488C27.9876 8.31311 27.0043 8.03693 26.0829 7.58486C25.159 7.13579 25.0979 7.13579 24.8926 7.58486C24.6922 8.03693 25.4043 8.33781 24.8926 8.63869C24.3835 8.93808 23.4384 9.2891 23.005 10.0406C22.5757 10.792 23.2535 11.4424 24.0527 11.5929C24.8511 11.7433 23.005 12.8458 23.6217 13.5471C24.236 14.2477 24.913 13.2462 25.2218 12.6452C25.5297 12.0442 26.267 12.7447 26.6988 12.6452C27.1281 12.5457 26.8666 12.1041 26.3289 11.5929C26.1684 11.4409 25.8817 11.3309 25.3285 11.2553C24.7737 11.179 24.4209 10.9058 24.5765 10.4911C24.7297 10.0787 25.4051 9.6783 25.9142 9.85344C26.4193 10.0286 26.3835 10.3444 26.4519 10.542C26.6255 11.0375 27.3114 10.2411 28.1734 9.89012C29.0353 9.53909 30.1416 10.4911 31.0638 10.8931C31.9869 11.2935 33.3401 11.8945 33.3401 11.8945C33.8321 12.3451 33.3401 11.0936 33.7083 10.542C34.0774 9.99116 35.2464 8.18737 35.9226 8.53765C36.5988 8.88793 38.1996 9.03912 38.506 8.58705C38.8139 8.13648 39.3679 8.23602 40.5972 7.53621C41.8258 6.8349 39.0591 7.58486 39.3679 7.33637Z" fill="#1E1E1E"/>
</svg>
