<svg width="41" height="40" viewBox="0 0 41 40" fill="none" xmlns="http://www.w3.org/2000/svg">
<path d="M19.9412 0.362401C20.1369 0.20385 20.4798 0 20.6555 0C20.8126 0 21.1269 0.20385 21.3098 0.323572L21.3698 0.362401C21.4784 0.431969 21.6655 0.563015 21.7555 0.676266L26.7355 7.11212C26.8695 7.28106 27.0334 7.41617 27.2165 7.50867C27.3996 7.60116 27.5979 7.64896 27.7984 7.64896C27.9989 7.64896 28.1971 7.60116 28.3802 7.50867C28.5634 7.41617 28.7272 7.28106 28.8612 7.11212L33.1098 1.75538C33.6384 1.08882 34.5484 1.03058 35.0955 1.67772C38.6701 5.88993 40.6631 11.5078 40.6555 17.3499C40.6555 29.8592 31.7012 40 20.6555 40C9.6098 40 0.655518 29.8592 0.655518 17.3499C0.655518 11.2684 2.77123 5.74664 6.21552 1.67772C6.76266 1.03058 7.67266 1.08882 8.20123 1.75538L12.4498 7.1105C12.5838 7.27944 12.7476 7.41455 12.9308 7.50705C13.1139 7.59954 13.3121 7.64734 13.5127 7.64734C13.7132 7.64734 13.9114 7.59954 14.0945 7.50705C14.2777 7.41455 14.4415 7.27944 14.5755 7.1105L19.5612 0.676266C19.6255 0.595372 19.7398 0.511244 19.8369 0.441676L19.9412 0.362401ZM7.79837 17.3499C7.41949 17.3499 7.05613 17.5204 6.78822 17.8238C6.52031 18.1272 6.3698 18.5387 6.3698 18.9678V22.2035C6.3698 22.6326 6.52031 23.0441 6.78822 23.3475C7.05613 23.6509 7.41949 23.8214 7.79837 23.8214H33.5126C33.8915 23.8214 34.2549 23.6509 34.5228 23.3475C34.7907 23.0441 34.9412 22.6326 34.9412 22.2035V18.9678C34.9412 18.5387 34.7907 18.1272 34.5228 17.8238C34.2549 17.5204 33.8915 17.3499 33.5126 17.3499H7.79837Z" fill="#1E1E1E"/>
</svg>
